<svg width="30" height="30" viewBox="0 0 30 30" fill="none" xmlns="http://www.w3.org/2000/svg">
<path d="M4.34564 18.2968L2.26365 16.1369C2.06956 15.9372 1.91932 15.6991 1.82256 15.438C1.72579 15.1768 1.68464 14.8983 1.70173 14.6203C1.71882 14.3424 1.79378 14.071 1.92181 13.8237C2.04984 13.5764 2.22811 13.3585 2.44521 13.184C4.89274 11.2892 7.75061 9.99493 10.7892 9.40517C13.5943 8.83376 16.4908 8.88698 19.273 9.56105C22.3003 10.2664 25.1189 11.675 27.5003 13.6727C27.7102 13.8544 27.88 14.0779 27.9988 14.3289C28.1176 14.5798 28.1829 14.8528 28.1904 15.1303C28.1979 15.4079 28.1476 15.684 28.0426 15.941C27.9376 16.198 27.7802 16.4304 27.5805 16.6233L25.4206 18.7053C25.0745 19.0455 24.6165 19.2483 24.1319 19.2758C23.6474 19.3034 23.1693 19.1538 22.7869 18.8549C22.0295 18.2516 21.2062 17.7358 20.3328 17.3176C19.9875 17.1532 19.6966 16.8934 19.4945 16.5688C19.2924 16.2442 19.1876 15.8685 19.1925 15.4861L19.2255 13.6904C16.4631 12.8758 13.532 12.822 10.7416 13.5345L10.7086 15.3302C10.6994 15.7125 10.5809 16.0841 10.367 16.4011C10.1531 16.718 9.85283 16.967 9.50176 17.1186C8.61359 17.5045 7.77192 17.9896 6.99282 18.5647C6.59552 18.8525 6.10631 18.9842 5.61823 18.9348C5.13014 18.8854 4.67724 18.6584 4.34564 18.2968Z" stroke="white" stroke-width="2" stroke-linecap="round" stroke-linejoin="round"/>
</svg>
