<svg width="23" height="23" viewBox="0 0 23 23" fill="none" xmlns="http://www.w3.org/2000/svg">
<path d="M22 7V1M22 1H16M22 1L15 8M21 16.92V19.92C21.0011 20.1985 20.9441 20.4742 20.8325 20.7293C20.7209 20.9845 20.5573 21.2136 20.3521 21.4019C20.1468 21.5901 19.9046 21.7335 19.6407 21.8227C19.3769 21.9119 19.0974 21.9451 18.82 21.92C15.7428 21.5856 12.787 20.5341 10.19 18.85C7.77382 17.3147 5.72533 15.2662 4.18999 12.85C2.49997 10.2412 1.44824 7.27099 1.11999 4.18C1.095 3.90347 1.12787 3.62476 1.21649 3.36162C1.30512 3.09849 1.44756 2.85669 1.63476 2.65162C1.82196 2.44655 2.0498 2.28271 2.30379 2.17052C2.55777 2.05833 2.83233 2.00026 3.10999 2H6.10999C6.5953 1.99522 7.06579 2.16708 7.43376 2.48353C7.80173 2.79999 8.04207 3.23945 8.10999 3.72C8.23662 4.68007 8.47144 5.62273 8.80999 6.53C8.94454 6.88792 8.97366 7.27691 8.8939 7.65088C8.81415 8.02485 8.62886 8.36811 8.35999 8.64L7.08999 9.91C8.51355 12.4135 10.5864 14.4864 13.09 15.91L14.36 14.64C14.6319 14.3711 14.9751 14.1858 15.3491 14.1061C15.7231 14.0263 16.1121 14.0555 16.47 14.19C17.3773 14.5286 18.3199 14.7634 19.28 14.89C19.7658 14.9585 20.2094 15.2032 20.5265 15.5775C20.8437 15.9518 21.0122 16.4296 21 16.92Z" stroke="white" stroke-width="2" stroke-linecap="round" stroke-linejoin="round"/>
</svg>
