<svg width="22" height="22" viewBox="0 0 22 22" fill="none" xmlns="http://www.w3.org/2000/svg">
<path d="M21 15.92V18.92C21.0011 19.1985 20.9441 19.4742 20.8325 19.7294C20.7209 19.9845 20.5573 20.2136 20.3521 20.4019C20.1469 20.5901 19.9046 20.7335 19.6408 20.8227C19.3769 20.9119 19.0974 20.9451 18.82 20.92C15.7428 20.5856 12.787 19.5342 10.19 17.85C7.77383 16.3147 5.72534 14.2662 4.19 11.85C2.49998 9.24121 1.44824 6.271 1.12 3.18001C1.09501 2.90347 1.12788 2.62477 1.2165 2.36163C1.30513 2.09849 1.44757 1.85669 1.63477 1.65163C1.82196 1.44656 2.04981 1.28271 2.30379 1.17053C2.55778 1.05834 2.83234 1.00027 3.11 1.00001H6.11C6.59531 0.995229 7.06579 1.16708 7.43376 1.48354C7.80173 1.79999 8.04208 2.23945 8.11 2.72001C8.23662 3.68007 8.47145 4.62273 8.81 5.53001C8.94455 5.88793 8.97366 6.27692 8.89391 6.65089C8.81415 7.02485 8.62886 7.36812 8.36 7.64001L7.09 8.91001C8.51356 11.4136 10.5865 13.4865 13.09 14.91L14.36 13.64C14.6319 13.3711 14.9752 13.1859 15.3491 13.1061C15.7231 13.0263 16.1121 13.0555 16.47 13.19C17.3773 13.5286 18.3199 13.7634 19.28 13.89C19.7658 13.9585 20.2094 14.2032 20.5265 14.5775C20.8437 14.9518 21.0122 15.4296 21 15.92Z" stroke="white" stroke-width="2" stroke-linecap="round" stroke-linejoin="round"/>
</svg>
