<svg width="75" height="20" viewBox="0 0 75 20" fill="none" xmlns="http://www.w3.org/2000/svg">
<path d="M13.5673 4.33868C13.576 4.31259 13.5716 4.28594 13.5569 4.26477C13.5417 4.24373 13.5171 4.23111 13.491 4.23111H11.772C11.7359 4.23111 11.7038 4.25495 11.6924 4.29015L9.47432 11.5361L9.43842 11.4299L6.99661 4.28594C6.98623 4.25369 6.95398 4.23111 6.9199 4.23111H5.25907C5.23243 4.23111 5.20663 4.24458 5.19246 4.26603C5.17619 4.28749 5.17227 4.31568 5.1818 4.34078L6.0106 6.62341L6.00612 6.6359L4.19468 11.5491L4.16256 11.448L1.89745 4.28833C1.88624 4.25453 1.85482 4.23097 1.8192 4.23097H0.0813856C0.0553015 4.23097 0.032161 4.2429 0.0158935 4.26463C0.000186944 4.28567 -0.00416035 4.31357 0.00411363 4.33909L3.25116 13.8906C3.26294 13.9233 3.29407 13.9453 3.32941 13.9453H4.95083C4.98645 13.9453 5.01647 13.9244 5.02867 13.8902L6.82328 8.90872L8.60008 13.8902C8.61102 13.9236 8.64187 13.9453 8.67707 13.9453H10.3195C10.3547 13.9453 10.3854 13.9226 10.3972 13.888L13.5673 4.33868Z" fill="white"/>
<path d="M24.5871 4.23112H23.1355C23.0964 4.23112 23.0633 4.25916 23.055 4.29745L22.8437 5.33113L22.7959 5.27883C22.5068 4.96526 22.1261 4.6831 21.6636 4.44175C21.1084 4.14978 20.4406 4.00197 19.6787 4.00197C18.2854 4.00197 17.1212 4.4956 16.2182 5.47067C15.3163 6.44349 14.859 7.66089 14.859 9.08808C14.859 10.5278 15.3029 11.7481 16.1786 12.7146C17.0578 13.6834 18.2355 14.175 19.6787 14.175C20.3737 14.175 21.028 14.0246 21.6257 13.7266C22.1167 13.4804 22.5102 13.1838 22.7949 12.8443L22.8434 12.7854L23.0552 13.8793C23.0623 13.917 23.0972 13.9455 23.1357 13.9455H24.5872C24.632 13.9455 24.6682 13.9089 24.6682 13.8625V4.31259C24.668 4.26772 24.6318 4.23112 24.5871 4.23112V4.23112ZM22.0714 11.4981C21.4984 12.1388 20.7505 12.4649 19.8491 12.4649C18.9357 12.4649 18.1857 12.1398 17.6189 11.4989C17.0504 10.8576 16.7617 10.0465 16.7617 9.08808C16.7617 8.13069 17.0505 7.31997 17.6189 6.67895C18.1849 6.03765 18.935 5.71272 19.8491 5.71272C20.7519 5.71272 21.4996 6.03765 22.0714 6.67895C22.6466 7.32166 22.9383 8.13251 22.9383 9.08808C22.9382 10.0456 22.6465 10.8562 22.0714 11.4981V11.4981Z" fill="white"/>
<path d="M34.9452 12.2343H29.8574L34.8738 5.71847C34.886 5.70472 34.8916 5.68761 34.8916 5.66896V4.31259C34.8916 4.26771 34.8544 4.23097 34.8091 4.23097H27.9149C27.8698 4.23097 27.8326 4.26771 27.8326 4.31259V5.86011C27.8326 5.90498 27.8698 5.94172 27.9149 5.94172H32.467L27.4669 12.4581C27.4564 12.4745 27.4503 12.4912 27.4503 12.5078V13.8626C27.4503 13.909 27.4871 13.9456 27.5327 13.9456H34.9452C34.9889 13.9456 35.025 13.909 35.025 13.8626V12.3161C35.0251 12.2713 34.9889 12.2343 34.9452 12.2343V12.2343Z" fill="white"/>
<path d="M45.4974 5.46983C44.5563 4.4956 43.3414 4.00197 41.8864 4.00197C40.4308 4.00197 39.2187 4.4956 38.2843 5.46983C37.3502 6.44111 36.8765 7.65879 36.8765 9.08808C36.8765 10.5188 37.3502 11.736 38.2843 12.7061C39.2187 13.6808 40.4308 14.175 41.8864 14.175C43.3414 14.175 44.556 13.6808 45.4974 12.7061C46.438 11.7342 46.9148 10.5172 46.9148 9.08808C46.9148 7.65991 46.438 6.44279 45.4974 5.46983V5.46983ZM44.1185 11.514C43.5272 12.145 42.776 12.4649 41.8864 12.4649C40.9982 12.4649 40.2503 12.1458 39.6626 11.5163C39.0755 10.8851 38.778 10.0692 38.778 9.08808C38.778 8.10713 39.0757 7.29053 39.6626 6.661C40.2497 6.03176 40.9976 5.71272 41.8864 5.71272C42.776 5.71272 43.5269 6.03162 44.1185 6.661C44.7126 7.29235 45.0143 8.10867 45.0143 9.08808C45.0143 10.069 44.7126 10.8847 44.1185 11.514V11.514Z" fill="white"/>
<path d="M5.12758 17.6084C5.12758 17.2634 4.98145 16.9792 4.72165 16.8209C4.55116 16.7194 4.35226 16.6829 3.95444 16.6829H3.21158V19.6828H3.7677V18.5421H3.94631C4.37254 18.5421 4.5674 18.5096 4.73383 18.4081C4.9774 18.2579 5.12758 17.9535 5.12758 17.6084ZM4.56741 17.6166C4.56741 17.8764 4.42937 18.0103 3.93007 18.0103H3.7677V17.2147H3.95444C4.38067 17.2147 4.56741 17.2999 4.56741 17.6166Z" fill="#98C451"/>
<path d="M10.2659 19.6828V19.151H9.34844V16.6829H8.7923V19.6828H10.2659Z" fill="#98C451"/>
<path d="M16.684 19.6828L15.4256 16.6829H14.9872L13.7369 19.6828H14.3498L14.6827 18.9074H15.7503L16.071 19.6828H16.684ZM15.5271 18.3757H14.8857L15.2064 17.4664L15.5271 18.3757Z" fill="#98C451"/>
<path d="M21.5569 17.2147V16.6829H19.8885V17.2147H20.4446V19.6828H21.0007V17.2147H21.5569Z" fill="#98C451"/>
<path d="M26.6723 17.2147V16.6829H25.146V19.6828H25.7021V18.4528H26.6276V17.921H25.7021V17.2147H26.6723Z" fill="#98C451"/>
<path d="M33.373 18.1808C33.373 17.3243 32.687 16.6301 31.8305 16.6301C30.9374 16.6301 30.2473 17.3081 30.2473 18.1849C30.2473 19.0495 30.9455 19.7356 31.8264 19.7356C32.6992 19.7356 33.373 19.0576 33.373 18.1808ZM32.8129 18.1889C32.8129 18.7654 32.3907 19.1997 31.8224 19.1997C31.2541 19.1997 30.8075 18.7532 30.8075 18.1849C30.8075 17.6044 31.2459 17.166 31.8224 17.166C32.3785 17.166 32.8129 17.6125 32.8129 18.1889Z" fill="#98C451"/>
<path d="M39.1458 19.6828L38.3339 18.5746C38.8738 18.4406 39.1174 18.1118 39.1174 17.645C39.1174 17.3405 39.0078 17.0807 38.8007 16.9062C38.6059 16.7397 38.3907 16.6829 37.9807 16.6829H37.1161V19.6828H37.6722V18.534L38.4597 19.6828H39.1458ZM38.5572 17.6612C38.5572 17.9778 38.3745 18.1159 37.9442 18.1159H37.6722V17.2147H37.9199C38.4476 17.2147 38.5572 17.3933 38.5572 17.6612Z" fill="#98C451"/>
<path d="M45.9099 19.6828V16.6829H45.1467L44.3471 18.9562L43.5392 16.6829H42.7761V19.6828H43.3322V17.4339L44.1157 19.6828H44.5703L45.3538 17.4339V19.6828H45.9099Z" fill="#98C451"/>
<path d="M74.4758 4.76555L72.2763 4.24757C72.3682 4.52816 72.4297 4.82281 72.4487 5.13132C72.4747 5.57126 72.4085 6.02097 72.2812 6.41914V6.42648C72.2775 6.43911 72.2739 6.45093 72.2739 6.46437C72.2739 6.51226 72.301 6.55281 72.3404 6.57522L72.3425 6.58035C72.3425 6.58035 72.3447 6.58096 72.3497 6.58216C72.3664 6.58969 72.3846 6.59479 72.4043 6.59479C72.4316 6.59479 72.4547 6.58379 72.4755 6.57034C72.4798 6.56973 72.4827 6.56868 72.4827 6.56868L72.5334 6.52711L72.5785 6.49348L74.4961 4.84622C74.509 4.83521 74.5155 4.81708 74.5112 4.79975C74.5069 4.78325 74.4929 4.77 74.4762 4.76552L74.4758 4.76555Z" fill="#98C451"/>
<path d="M54.0355 0L53.9644 0.122465C53.2895 1.27559 53.6799 2.76413 54.8339 3.44003L55.5483 3.85714C55.3845 4.1632 55.2948 4.49025 55.2714 4.81873L64.8481 6.32336L54.0355 0Z" fill="#98C451"/>
<path d="M53.6369 19.083C54.397 19.8768 55.555 20.0806 56.5194 19.6588L57.2907 17.1547C60.3637 19.6961 64.9137 19.6362 67.9142 16.8496C70.1882 14.7355 70.9666 11.6183 70.2076 8.8183C71.0396 8.41341 71.6568 7.65784 71.8728 6.75046C71.8854 6.69911 71.8979 6.64857 71.9078 6.59539C71.9186 6.53568 71.9286 6.47618 71.9355 6.41505C71.9492 6.30848 71.9578 6.19987 71.9598 6.09004C71.9598 6.07639 71.9627 6.06396 71.9627 6.0501C71.9627 6.04721 71.9625 6.04497 71.9625 6.04295C71.9625 6.03948 71.9627 6.03561 71.9627 6.03276C71.9627 5.87749 71.9476 5.72711 71.9246 5.57795C71.9231 5.56674 71.9217 5.55574 71.9195 5.54494C71.6805 4.07821 70.3888 2.95605 68.8253 2.95605C68.8224 2.95605 68.8195 2.95667 68.8169 2.95667C68.8133 2.95667 68.8111 2.95605 68.8077 2.95605C68.7953 2.95605 68.7841 2.95829 68.7718 2.95829C68.7132 2.9585 68.6537 2.96219 68.5944 2.96665C68.59 2.96726 68.5848 2.96766 68.5801 2.96831C68.5118 2.97343 68.4442 2.98176 68.3773 2.99133C68.3523 2.99523 68.3266 2.99624 68.3021 2.99989C68.2917 3.00169 68.2813 3.00112 68.2714 3.00314C68.267 3.00415 68.262 3.00538 68.2579 3.00603C68.2443 3.00927 68.2309 3.01317 68.2172 3.0154C68.1934 3.02052 68.1698 3.02559 68.1457 3.0315C66.7221 3.32982 65.6534 4.56547 65.6534 6.05074C65.6534 6.27305 65.6851 6.48925 65.7318 6.69873L65.7643 6.83403C65.77 6.85584 65.7739 6.87825 65.7739 6.90331C65.7739 7.04371 65.665 7.16903 65.5212 7.15314L65.4022 7.13623L51.1587 4.88641L51.1369 5.03353C50.9164 6.42018 51.868 7.7294 53.2561 7.94886L54.1154 8.08416C53.9544 9.43576 54.8907 10.6883 56.2454 10.9013L57.1049 11.0374C56.9443 12.3888 57.8794 13.6411 59.2357 13.8555L59.2728 13.8608L53.6369 19.083Z" fill="white"/>
</svg>
