<svg width="541" height="496" viewBox="0 0 541 496" fill="none" xmlns="http://www.w3.org/2000/svg">
<path d="M156.315 318.833C156.415 318.533 156.365 318.227 156.196 317.983C156.021 317.741 155.737 317.595 155.437 317.595H135.653C135.238 317.595 134.868 317.87 134.737 318.275L109.208 401.67L108.795 400.448L80.6919 318.227C80.5724 317.855 80.2012 317.595 79.809 317.595H60.6942C60.3875 317.595 60.0905 317.75 59.9275 317.997C59.7403 318.244 59.6951 318.569 59.8049 318.858L69.3437 345.129L69.2921 345.273L48.4438 401.82L48.0741 400.656L22.0045 318.254C21.8754 317.865 21.5138 317.594 21.1039 317.594H1.10295C0.802738 317.594 0.536408 317.731 0.349182 317.981C0.168411 318.223 0.118377 318.544 0.213605 318.838L37.5846 428.769C37.7202 429.145 38.0785 429.399 38.4853 429.399H57.1466C57.5565 429.399 57.9019 429.158 58.0424 428.764L78.697 371.431L99.1466 428.764C99.2725 429.148 99.6276 429.399 100.033 429.399H118.936C119.341 429.399 119.695 429.137 119.83 428.739L156.315 318.833Z" fill="white"/>
<path d="M283.145 317.595H266.438C265.988 317.595 265.607 317.918 265.512 318.359L263.079 330.256L262.529 329.654C259.203 326.045 254.821 322.797 249.498 320.02C243.108 316.659 235.422 314.958 226.653 314.958C210.617 314.958 197.218 320.639 186.825 331.862C176.445 343.058 171.182 357.07 171.182 373.495C171.182 390.065 176.29 404.11 186.37 415.234C196.488 426.384 210.043 432.042 226.653 432.042C234.652 432.042 242.183 430.311 249.062 426.881C254.712 424.048 259.241 420.635 262.518 416.727L263.076 416.049L265.513 428.638C265.596 429.073 265.998 429.4 266.44 429.4H283.147C283.661 429.4 284.078 428.979 284.078 428.445V318.533C284.076 318.017 283.66 317.595 283.145 317.595V317.595ZM254.191 401.232C247.596 408.607 238.989 412.359 228.614 412.359C218.102 412.359 209.47 408.618 202.946 401.242C196.403 393.861 193.081 384.526 193.081 373.495C193.081 362.477 196.404 353.146 202.946 345.768C209.46 338.387 218.094 334.648 228.614 334.648C239.005 334.648 247.611 338.387 254.191 345.768C260.812 353.165 264.169 362.498 264.169 373.495C264.167 384.516 260.81 393.845 254.191 401.232V401.232Z" fill="white"/>
<path d="M402.358 409.706H343.801L401.537 334.714C401.677 334.556 401.742 334.359 401.742 334.144V318.533C401.742 318.017 401.314 317.594 400.792 317.594H321.446C320.926 317.594 320.498 318.017 320.498 318.533V336.344C320.498 336.86 320.926 337.283 321.446 337.283H373.837L316.289 412.282C316.168 412.471 316.098 412.663 316.098 412.853V428.446C316.098 428.981 316.521 429.402 317.046 429.402H402.358C402.862 429.402 403.276 428.981 403.276 428.446V410.647C403.278 410.132 402.862 409.706 402.358 409.706V409.706Z" fill="white"/>
<path d="M523.807 331.852C512.975 320.64 498.993 314.958 482.247 314.958C465.494 314.958 451.544 320.64 440.79 331.852C430.039 343.031 424.586 357.045 424.586 373.495C424.586 389.962 430.039 403.971 440.79 415.136C451.544 426.355 465.494 432.042 482.247 432.042C498.993 432.042 512.972 426.355 523.807 415.136C534.632 403.95 540.12 389.944 540.12 373.495C540.12 357.058 534.632 343.05 523.807 331.852V331.852ZM507.936 401.416C501.131 408.678 492.485 412.359 482.247 412.359C472.024 412.359 463.416 408.688 456.652 401.442C449.896 394.178 446.471 384.787 446.471 373.495C446.471 362.205 449.897 352.807 456.652 345.562C463.41 338.319 472.018 334.648 482.247 334.648C492.485 334.648 501.128 338.318 507.936 345.562C514.775 352.828 518.246 362.223 518.246 373.495C518.246 384.786 514.775 394.173 507.936 401.416V401.416Z" fill="white"/>
<path d="M58.9658 471.448C58.9658 467.516 57.3005 464.277 54.3396 462.473C52.3965 461.317 50.1295 460.9 45.5957 460.9H37.1294V495.089H43.4674V482.089H45.5029C50.3606 482.089 52.5814 481.719 54.4782 480.562C57.2541 478.851 58.9658 475.381 58.9658 471.448V471.448ZM52.5814 471.541C52.5814 474.501 51.0086 476.028 45.3181 476.028H43.4674V466.961H45.5957C50.4534 466.961 52.5814 467.932 52.5814 471.541V471.541Z" fill="white"/>
<path d="M117.526 495.089V489.029H107.07V460.9H100.732V495.089H117.526Z" fill="white"/>
<path d="M190.672 495.089L176.33 460.9H171.334L157.085 495.089H164.071L167.864 486.253H180.032L183.686 495.089H190.672ZM177.487 480.192H170.177L173.832 469.829L177.487 480.192Z" fill="white"/>
<path d="M246.208 466.961V460.9H227.193V466.961H233.531V495.089H239.869V466.961H246.208Z" fill="white"/>
<path d="M304.507 466.961V460.9H287.112V495.089H293.45V481.071H303.998V475.011H293.45V466.961H304.507Z" fill="white"/>
<path d="M380.875 477.972C380.875 468.21 373.056 460.299 363.295 460.299C353.117 460.299 345.252 468.025 345.252 478.018C345.252 487.872 353.209 495.691 363.248 495.691C373.195 495.691 380.875 487.965 380.875 477.972V477.972ZM374.491 478.064C374.491 484.633 369.679 489.584 363.202 489.584C356.725 489.584 351.636 484.494 351.636 478.018C351.636 471.402 356.633 466.405 363.202 466.405C369.54 466.405 374.491 471.494 374.491 478.064V478.064Z" fill="white"/>
<path d="M446.666 495.089L437.413 482.459C443.566 480.932 446.342 477.185 446.342 471.865C446.342 468.395 445.093 465.434 442.734 463.445C440.513 461.548 438.061 460.9 433.388 460.9H423.534V495.089H429.872V481.997L438.848 495.089H446.666ZM439.958 472.05C439.958 475.658 437.876 477.231 432.972 477.231H429.872V466.961H432.694C438.709 466.961 439.958 468.996 439.958 472.05V472.05Z" fill="white"/>
<path d="M523.756 495.089V460.9H515.059L505.944 486.808L496.738 460.9H488.04V495.089H494.378V469.459L503.307 495.089H508.489L517.418 469.459V495.089H523.756Z" fill="white"/>
<path d="M436.221 63.3738L407.269 56.5555C408.478 60.249 409.288 64.1275 409.538 68.1885C409.881 73.9795 409.009 79.8992 407.333 85.1404V85.2369C407.285 85.4032 407.238 85.5588 407.238 85.7358C407.238 86.3661 407.594 86.8999 408.112 87.195L408.141 87.2624C408.141 87.2624 408.169 87.2705 408.236 87.2862C408.455 87.3854 408.695 87.4525 408.955 87.4525C409.314 87.4525 409.617 87.3077 409.89 87.1306C409.947 87.1226 409.986 87.1087 409.986 87.1087L410.654 86.5616L411.247 86.119L436.49 64.4356C436.659 64.2907 436.744 64.052 436.688 63.824C436.631 63.6067 436.447 63.4323 436.227 63.3734L436.221 63.3738Z" fill="white"/>
<path d="M167.16 0.643738L166.224 2.25577C157.341 17.4347 162.48 37.0286 177.669 45.9257L187.073 51.4163C184.917 55.4451 183.737 59.7501 183.428 64.0739L309.489 83.8797L167.16 0.643738Z" fill="white"/>
<path d="M161.914 251.838C171.918 262.288 187.162 264.97 199.857 259.418L210.009 226.455C250.46 259.909 310.353 259.12 349.849 222.44C379.783 194.612 390.029 153.578 380.038 116.721C390.99 111.392 399.114 101.446 401.957 89.5017C402.124 88.8258 402.287 88.1606 402.418 87.4605C402.561 86.6746 402.692 85.8914 402.783 85.0867C402.963 83.6839 403.076 82.2542 403.103 80.8085C403.103 80.6288 403.141 80.4652 403.141 80.2827C403.141 80.2447 403.138 80.2153 403.138 80.1887C403.138 80.143 403.141 80.0921 403.141 80.0546C403.141 78.0107 402.942 76.0312 402.639 74.0677C402.62 73.9202 402.601 73.7754 402.572 73.6332C399.426 54.3263 382.423 39.5551 361.842 39.5551C361.804 39.5551 361.766 39.5631 361.732 39.5631C361.684 39.5631 361.656 39.5551 361.611 39.5551C361.448 39.5551 361.3 39.5845 361.139 39.5845C360.366 39.5872 359.583 39.6359 358.803 39.6945C358.745 39.7025 358.676 39.7078 358.615 39.7164C357.716 39.7838 356.825 39.8934 355.946 40.0194C355.616 40.0708 355.278 40.0841 354.956 40.1321C354.819 40.1558 354.682 40.1482 354.551 40.1748C354.494 40.1881 354.427 40.2043 354.374 40.2128C354.195 40.2556 354.018 40.3069 353.838 40.3362C353.525 40.4037 353.214 40.4703 352.896 40.5481C334.158 44.475 320.089 60.7402 320.089 80.2912C320.089 83.2176 320.508 86.0635 321.122 88.8208L321.549 90.6018C321.625 90.8889 321.675 91.1839 321.675 91.5139C321.675 93.362 320.243 95.0115 318.349 94.8023L316.783 94.5797L129.293 64.9649L129.006 66.9015C126.104 85.1543 138.63 102.388 156.901 105.277L168.212 107.058C166.093 124.849 178.419 141.337 196.25 144.14L207.564 145.932C205.45 163.72 217.759 180.206 235.612 183.027L236.101 183.097L161.914 251.838Z" fill="#95CC39"/>
</svg>
